<svg enable-background="new 0 0 412.6 348.7" viewBox="0 0 412.6 348.7" xmlns="http://www.w3.org/2000/svg"><path d="m280.2 158.3c-9.2-3.3-21.4-6-32-7h-.1v12.7c.9-.2 1.7-.3 2.6-.5 9.6-1.9 19.7-3.9 29.5-5.2z" fill="#ad9e6e"/><path d="m248.1 149.6h.5c12.2 1.1 25.9 4.3 35.6 8.2 6.7-.7 13.1-1 19.2-.6-1.7-4.7-3.8-9.3-6.2-13.7-5.3-3.1-13.6-6-24.7-8.6-7.2-1.7-16.1-2.7-24.4-2.9z" fill="#ad9e6e"/><path d="m309.7 193.2c0-11.9-2-23.4-5.7-34.1-16-1.3-35.4 2.7-52.9 6.2-1 .2-2 .4-3 .6v27.1c2.2.2 4.4.3 6.6.5 7.6.5 14.9.7 21.8.8 7 0 13.5-.1 19.6-.2 4.9-.2 9.4-.4 13.5-.6.1-.2.1-.3.1-.3z" fill="#ad9e6e"/><path d="m111.6 146.5c5.5-1 14.2-1.7 23.6-.9 9.1.7 16.7 2.6 22.3 4.3v-17.8c-14.6 1.1-34 4.9-44.1 11.1-.7 1.1-1.2 2.2-1.8 3.3z" fill="#ad9e6e"/><path d="m110.7 148.4c-4.5 9.5-7.6 19.8-9.1 30.6 9.6-4 30.1-11.2 55.9-11.9v-15.4c-5.6-1.7-13.3-3.7-22.7-4.4-9.8-.7-18.8.1-24.1 1.1z" fill="#ad9e6e"/><path d="m100.8 187.6s.1 0 0 0c5-.8 10.6-1.5 16.7-2.1s12.8-.9 19.8-.9c6.4 0 13.2.2 20.1.5v-16.2c-26.4.8-47.1 8.3-56.1 12.2-.2 2.1-.4 4.3-.5 6.5z" fill="#ad9e6e"/><path d="m333.7 193.6c-1.8.5-4.6 1.1-8.1 1.6-3.5.6-7.8 1-12.7 1.4s-10.5.7-16.5.8c-6.1.2-12.6.3-19.6.2-6.9-.1-14.3-.3-21.8-.8-1.6-.1-3.2-.2-4.8-.3v-102.4l.4-.6c.3-.5.5-1 .5-1.6v-4.9l2.6-1.5c1.5-.4 2.6-1.6 3.2-3.4 1.1-.9 1.9-2.5 2.1-4.2.1-.8-.2-1.7-.7-2.3-.6-.6-1.4-1-2.2-1h-6l-5.8-9v-12.2c0-3.6-2.5-6.2-6-6.2-1.2 0-3.3 0-5.2 0h-.5l-12.7-19.9c.4-.4.7-.8.9-1.3.9-.8 1.5-2.2 1.6-3.8.1-.8-.2-1.6-.8-2.2-.5-.6-1.3-.9-2.1-1h-3.4v-8-.4c.1-.2.2-.4.3-.5.3-.4.4-.7.5-.9 0-.2-.1-.7-.4-1.8-.2-.8-.5-1.7-.5-2.2 0-.1-.1-.1-.2-.1-.1 0-.1.1-.2.1 0 .5-.3 1.6-.6 2.5-.3 1.1-.4 1.5-.4 1.7s.2.4.5.8c.1.1.2.3.3.5v.1h-5c-.1-.3-.2-.7-.3-1.3-.2-.8-.4-1.7-.5-2.1 0-.1-.1-.1-.1-.1-.1 0-.1.1-.1.1 0 .5-.3 1.5-.5 2.4-.1.4-.2.8-.2 1h-9.8v-.1c.1-.2.2-.4.3-.5.3-.4.4-.7.5-.9 0-.2-.1-.7-.4-1.8-.2-.8-.5-1.7-.5-2.2 0-.1-.1-.1-.2-.1-.1 0-.1.1-.2.1 0 .5-.3 1.6-.6 2.5-.3 1.1-.4 1.5-.4 1.7s.2.4.5.8c.1.1.2.3.3.4v.2l-4.6 1.8v-.1c.1-.2.2-.3.3-.5.3-.4.4-.7.4-.8 0-.2-.1-.6-.4-1.7-.2-.8-.4-1.7-.5-2.1 0-.1-.1-.1-.1-.1-.1 0-.1.1-.1.1 0 .5-.3 1.5-.5 2.4-.3 1-.4 1.4-.3 1.6 0 .2.2.4.4.8.1.1.2.3.3.4v.5 7.8l-4 1.6c-1.3.5-2.1 1.9-1.8 3.3.1.7.6 2.3 2.1 3.2 0 0 .1 0 .1.1l-9.6 17.6h-6.9c-1.1-.3-2.4-.1-3.5.6-1.9 1.2-3.3 3.8-3.3 6v18.3l-8.8 16-4.2 3.2c-1 .7-1.4 1.9-1 3.1.5 1.6 1.7 2.9 3.3 3.4.6.6 1.4 1.3 2.8 1.7v3.5c0 .8.3 1.5.9 2.1v84.1c-7.3-.3-14.5-.6-21.3-.6-7 0-13.7.3-19.8.9s-11.7 1.3-16.6 2.1-9.2 1.7-12.7 2.4c-3.5.8-6.2 1.5-8.1 2-1.8.5-2.8.8-2.8.8s1-.1 2.9-.3 4.7-.6 8.2-.9c3.5-.4 7.8-.8 12.8-1.1 4.9-.4 10.5-.6 16.6-.7s12.6-.1 19.6 0 14.2.4 21.9 1c7.5.6 15.4 1.4 23.3 2.2 8 .9 16 1.7 24.1 2.6 8.1.8 16.2 1.6 24.2 2.3s15.9 1.1 23.6 1.4 15.1.3 22.2.2c7-.1 13.7-.5 19.8-1.1s11.7-1.4 16.6-2.2 9.2-1.8 12.7-2.8c3.5-.9 6.1-2 7.9-2.7.9-.4 1.5-.7 2-1 .4-.2.7-.4.7-.4s-1.4.2-3.3.7zm-119.9-182.2h1.5v1.4h-1.5zm0 1.8h1.5v4.1h-1.5zm0 4.5h1.5v1.3h-1.5zm-2.2-6.3h1.8v1.4h-1.8zm0 1.8h1.8v4.1h-1.8zm0 4.5h1.8v1.3h-1.8zm-2-5.2c.1-.2.2-.4.3-.5.2-.3.3-.5.4-.6h.9v1.4h-1.6zm0 .7h1.6v4.1h-1.6zm0 4.5h1.6v1.3h-1.6zm9.4 4.6c-.1.6-.3 1.4-.7 1.4h-19.4c-.1-.3-.1-1-.1-1.6zm-1.1 2.1c-.1.3-.4.7-.9 1l-17.9.1c0-.1 0-.2-.1-.3 0-.2-.1-.4-.1-.7zm-10.6-13.1h1.1c0 .2.2.4.4.7.1.1.2.2.2.4v.3h-1.8v-1.4zm0 1.8h1.8v4.1h-1.8zm0 4.6h1.8v1.3h-1.8zm-2.2-6.4h1.8v1.4h-1.8zm0 1.8h1.8v4.1h-1.8zm0 4.6h1.8v1.3h-1.8zm-2.2-6.4h1.8v1.4h-1.8zm0 1.8h1.8v4.1h-1.8zm0 4.6h1.8v1.3h-1.8zm-2.2-6.4h1.8v1.4h-1.8zm0 1.8h1.8v4.1h-1.8zm0 4.6h1.8v1.3h-1.8zm-2.1-6.4h1.7v1.4h-1.7zm0 1.8h1.7v4.1h-1.7zm0 4.5h1.7v1.4h-1.7zm-1.4-5.8.8-.3v1.3l-.8.3zm0 1.8.8-.3v4l-.8.3zm0 4.5.8-.3v1.2c-.2 0-.4.1-.7.2l-.2.1v-1.2zm-1.2-5.8.9-.4v1.3l-.9.4zm0 1.8.9-.4v4.1l-.9.4zm0 4.6.9-.4v1.1l-.9.4zm-1.3-5.9.9-.4v1.3l-.9.4zm0 1.8.9-.4v4.1l-.9.4zm0 4.6.9-.4v1.1l-.9.4zm-1.2-5.9.9-.4v1.3l-.9.4zm0 1.8.9-.4v4.1l-.9.4zm0 4.6.9-.4v1l-.9.4zm5.8 7.5h16.5l32 49.9h-1.5l-31.2-48.6c-.1-.1-.2-.1-.3-.1h-14.4c-.1 0-.2.1-.3.2l-21.3 48.6h-1.6zm-18.8 47.9.6-1.3h14.2c-.1-.3-.2-.6-.3-.9h-13.5l.6-1.3h12.4c-.1-.3-.2-.6-.3-.9h-11.6l.6-1.3h10.5c-.1-.3-.2-.6-.3-.9h-9.8l.6-1.3h8.7c-.1-.3-.2-.6-.3-.9h-8l.6-1.3h6.9c-.1-.3-.1-.6-.2-.9h-6.3l.6-1.3h5.6c0-.3 0-.6.1-.9h-5.3l.6-1.3h5.1c.1-.3.3-.6.4-.9h-5.1l.6-1.3h5.4c.2-.3.4-.6.6-.9h-5.6l.6-1.3h5.9c.2-.3.4-.6.6-.9h-6.1l.6-1.3h6.4c.2-.3.4-.6.6-.9h-6.6l.6-1.3h6.9v-.1l.1-.2c.1-.2.1-.4.2-.6h-6.9l.6-1.3h7.1c.3-.3.6-.6 1-.9h-7.7l.6-1.3h8.6c0-.3.1-.6.1-.9h-8.4l.6-1.3h8.3c.1-.1.1-.2.2-.3.1-.2.3-.4.4-.6h-8.9l.6-1.3h8.8c.2-.3.4-.6.6-.9h-9l.6-1.3h9.4c.2-.3.4-.6.6-.9h-9.6l.6-1.3h9.8c.2-.3.4-.6.6-.9h-10l.6-1.3h10c.1-.3.2-.6.4-.9h-10l.6-1.3h10.6c.6-.4 1.2-.7 1.9-.9h-12.1l.6-1.3h16.4l.9 1.3h-4c.7.1 1.3.4 1.9.9h2.6l.9 1.3h-2.3c.2.3.3.6.4.9h2.5l.9 1.3h-3.1v.1.8h3.6l.9 1.3h-4.5v.9h5.1l.9 1.3h-5.9v.9h6.5l.9 1.3h-7.3v.7h7.9l.9 1.3h-8.7v.9h9.3l.9 1.3h-3.2c.2.2.5.3.7.6.1.1.2.2.3.3h2.2l.9 1.3h-2.3c.1.3.2.6.2.9h2.6l.9 1.3h-3.4v.9h4l.9 1.3h-4.8v.9h5.4l.9 1.3h-6.2v.9h6.8l.9 1.3h-7.7v.9h8.2l.9 1.3h-9.1v.9h9.6l.9 1.3h-10.5v.9h11.1l.9 1.3h-11.9v.9h12.5l.9 1.3h-13.3v.9h13.5l.9 1.3h-14.7v.9h15.3l.9 1.3h-16.2v.9h16.7l.9 1.3h-17.6v.9h18.1l.8 1.2h-18.9-29.5-17l.5-1.2h16c-.1-.3-.2-.6-.3-.9h-15.4zm19.4-44.2.6-1.3h14l.9 1.3zm-24.3 46.9 80-.1c-.1.6-.5 1.9-1.4 1.9l-78.5.1c0-.3-.1-1-.1-1.9zm.5 3.9c-.1-.4-.1-.8-.2-1.3l78-.1c-.1.6-.5 2-1.3 2l-76.5.1c0-.2 0-.5 0-.7zm68.4 3.2c.1-.2.2-.3.2-.6.1-.4 0-.8 0-1h1.7c0 .2.1.5.1 1 0 .2-.1.4-.3.7zm1 4.5v2.9c0 .8-.2 1.5-.4 1.7h-1.4c.3-.6.3-1.4.3-1.7v-2.8zm-13.6-4.5c.1-.2.2-.3.2-.6.1-.4 0-.8 0-1h1.7c0 .2.1.5.1 1 0 .2-.1.4-.3.7zm.9 4.5v2.9c0 .8-.2 1.5-.4 1.7h-1.4c.3-.6.3-1.4.3-1.7v-2.8zm.6-1.8h7.8c.5 1.1 1.1 2.5 1.1 4l-8.9.1zm-14.1-2.7c.1-.2.2-.3.2-.6.1-.4 0-.8 0-1h1.7c0 .2.1.5.1 1 0 .2-.1.4-.3.7zm.9 4.5v2.9c0 .8-.2 1.5-.4 1.7h-1.4c.3-.6.3-1.4.3-1.7v-2.8zm.5-1.8h7.8c.5 1.1 1.1 2.6 1.1 4l-8.9.1zm-14.1-2.7c.1-.2.2-.3.2-.6.1-.4 0-.8 0-1h1.7c0 .2.1.5.1 1 0 .2-.1.4-.3.7zm.9 4.5v2.9c0 .8-.2 1.5-.4 1.7h-1.4c.3-.6.3-1.4.3-1.7v-2.8zm.5-1.7h7.9c.6 1.1 1.1 2.6 1.1 4.1l-8.9.1v-4.2zm-14-2.8c.1-.2.2-.3.2-.6.1-.4 0-.8 0-1h1.7c0 .2.1.5.1 1 0 .2-.1.4-.3.7zm1 4.5v2.9c0 .8-.2 1.5-.4 1.7h-1.4c.3-.6.3-1.4.3-1.7v-2.8zm.5-1.7h7.7c.6 1.1 1.1 2.7 1.1 4.1l-8.8.1zm-14.2-2.8c.1-.2.2-.3.2-.6.1-.4 0-.8 0-1h1.7c0 .2.1.5.1 1 0 .2-.1.4-.3.7zm.9 4.5v2.9c0 .8-.2 1.5-.4 1.7h-1.4c.3-.6.3-1.4.3-1.7v-2.8zm.5-1.7h7.9c.6 1.2 1.2 2.7 1.1 4.2l-9 .1zm-6.2 0h1.4c.6 1.2 1.2 2.8 1.1 4.2h-2.5zm70.1 108.6c-4.9-.4-9.9-.8-15-1.3-8-.7-16-1.6-24.1-2.4s-16.2-1.6-24.2-2.3c-2.1-.2-4.2-.3-6.3-.5v-96.6h2.1v1.6c0 .1 0 .1.1.2 0 0 .1.1.2.1h2 .1c.4-.2.6-.5.7-.7.3-.2.4-.7.5-1.2h9.2v1.6c0 .1 0 .1.1.2 0 0 .1.1.2.1h2 .1c.4-.2.6-.5.7-.7.3-.2.4-.7.5-1.2h9v1.6c0 .1 0 .1.1.2 0 0 .1.1.2.1h2 .1c.4-.2.6-.5.7-.7.3-.2.4-.7.5-1.2h9.1v1.6c0 .1 0 .1.1.2 0 0 .1.1.2.1h2 .1c.4-.2.6-.5.7-.7.3-.2.4-.8.5-1.2h9.1v1.7c0 .1 0 .1.1.2 0 0 .1.1.2.1h2 .1c.4-.2.6-.5.7-.7.3-.2.5-.8.5-1.2h9.1v1.7c0 .1 0 .1.1.2 0 0 .1.1.2.1h2 .1c.4-.2.6-.5.7-.7.3-.2.5-.8.5-1.3h.7v103zm-.6-104.7v-4h1.9v3.9z" fill="#093266"/><path d="m217.1 50.8h-.6v.8h.1z" fill="#093266"/><path d="m218.9 48.6h-2.4v.9h1.5c.2-.4.6-.7.9-.9z" fill="#093266"/><path d="m199.7 62.2h4.7v-9.4c0-1.3-1-2.3-2.3-2.3s-2.3 1.1-2.3 2.3v9.4z" fill="#093266"/><path d="m209.3 54.8h4.7v-16.9c0-1.3-1-2.3-2.3-2.3s-2.3 1.1-2.3 2.3v16.9z" fill="#093266"/><path d="m218.8 62.2h4.7v-9.4c0-1.3-1-2.3-2.3-2.3s-2.3 1.1-2.3 2.3v9.4z" fill="#093266"/><path d="m196 77.2h1.8v-24.7c0-2.5 2-4.5 4.5-4.5 1.2 0 2.3.5 3.1 1.3s1.3 2 1.3 3.1v24.7h.7v-39.4c0-2.5 2-4.5 4.5-4.5 1.2 0 2.3.5 3.1 1.3s1.3 2 1.3 3.1v39.5h.7v-24.7c0-2.5 2-4.5 4.5-4.5 1.2 0 2.3.5 3.1 1.3s1.3 2 1.3 3.1v24.8h.7v-24.7c0-1.4-.5-2.6-1.5-3.6s-2.2-1.5-3.6-1.5c-1.9 0-3.6 1.1-4.5 2.7v-12.4c0-1.4-.5-2.6-1.5-3.6s-2.2-1.5-3.6-1.5c-2.6 0-4.7 1.9-5 4.4-1.6 2.5-4.2 6.3-5.1 7.6-.6.9-.9 2-1 3.1-1.7.5-3.1 1.9-3.5 3.7-1.6 2.4-4.3 6.6-5.3 7.9-1.4 1.9-1.1 4.9-.3 6.8.6 1.5 3.3 8.5 4.3 11.2z" fill="#093266"/><path d="m205.9 77.2v-24.8c0-1-.4-1.9-1.1-2.6s-1.6-1.1-2.6-1.1c-.8 0-1.6.3-2.2.8-.1.1-.1.1 0 .2 0 .1.1.1.2 0 .5-.3 1.1-.5 1.7-.5.9 0 1.7.3 2.3 1 .6.6 1 1.5 1 2.3v10.5h-6v.7h.4v12.7h4.7v-12.8h.9v13.5z" fill="#093266"/><path d="m225.1 77.1v-24.7c0-1-.4-1.9-1.1-2.6s-1.6-1.1-2.6-1.1c-.8 0-1.6.3-2.2.8-.1.1-.1.1 0 .2 0 .1.1.1.2 0 .5-.3 1.1-.5 1.7-.5.9 0 1.7.3 2.3 1 .6.6 1 1.5 1 2.3v10.3h-6v.7h.4v12.7h4.7v-12.6h.9v13.6z" fill="#093266"/><path d="m215.5 77.1v-39.5c0-1-.4-1.9-1.1-2.6s-1.6-1.1-2.6-1.1c-.8 0-1.6.3-2.2.8-.1.1-.1.1 0 .2 0 .1.1.1.2 0 .5-.3 1.1-.5 1.7-.5.9 0 1.7.3 2.3 1 .6.6 1 1.5 1 2.3v17.6h-6v.7h.4v20.3h4.7v-20.1h.9v21z" fill="#093266"/><path d="m165.2 110.1c0-2.2.7-3.5 1.5-3.1.3.1.7.4.7.4-.3-.6-.6-1-1-1-.9-.2-1.6.9-1.6 3.3v21.1l.4-.2z" fill="#fff"/><path d="m169.4 109.1c0-2.2.7-3.5 1.5-3.1.3.1.7.4.7.4-.3-.6-.6-1-1-1-.9-.2-1.6.9-1.6 3.3v20.5l.4-.2z" fill="#fff"/><path d="m172.2 131.4-8.2 2.5v-1.3l8.2-2.4z" fill="#fff"/><path d="m172.9 183.1-9.4 1.4v-1.4l9.4-1.4z" fill="#fff"/><path d="m164.8 154.8c.4-.8.9-1.3 1.9-1.2.4 0 .8.2 1.2.4-.4-.3-.8-.6-1.2-.8-1.3-.6-2.2 0-2.6.9v27.1h.7z" fill="#fff"/><path d="m169.4 153.9c.4-.8.9-1.3 1.9-1.2.4 0 .8.2 1.2.4-.4-.3-.8-.6-1.2-.8-1.3-.6-2.2 0-2.6.9v27.5h.7z" fill="#fff"/><path d="m169.8 77.2v-23.9c0-.7.5-1.6 1-2 .6-.4 1-.1 1 .6v23.8l.9-.7v-24.2c0-1.3-.9-1.8-1.9-1.1-1.1.7-1.9 2.3-1.9 3.6v24.6z" fill="#fff"/><path d="m229.5 179.3h-1.5v-28.2c0-.1 0-.2-.1-.2-1.9-1.7-4.4-2.6-6.9-2.6 0 0 0 0-.1 0-2.5 0-5 .9-6.9 2.5-.2.2-.4.3-.6.5-.1.1-.1.1-.1.2v27.8h-1.4v-28.3c0-.1 0-.2-.1-.2-1.9-1.7-4.4-2.6-6.9-2.6 0 0 0 0-.1 0-2.5 0-5 .9-6.9 2.5-.2.2-.4.3-.6.5-.1.1-.1.1-.1.2v27.8h-1.2-.1l-.6.5c-.1 0-.1.1-.1.2v3c0 .1.1.2.2.2h.9v1.2c0 .1.1.2.2.2l31.2.1h.1l.6-.5v-.1-.7h.3.1l.6-.5v-.1-3c.3-.3.2-.4.1-.4zm-15.7-27.7c1.8-1.5 4.1-2.3 6.4-2.3h.1c2.3 0 4.6.8 6.4 2.4v27.6h-.9v-27.1s0-.1-.1-.1c-1.6-1.2-3.5-1.8-5.5-1.9-1.5 0-3 .4-4.4 1.1-.1 0-.1.1-.1.2s.1.1.2.1c1.2-.6 2.5-.9 3.8-.9 1.9 0 3.7.6 5.3 1.7v12.8h-9.8v.4h.4v5.5h3.9v-5.5h.9v5.5h3.6v-5.5h1v13.6l-11.3-.1v-27.5zm-16.1-.1c1.8-1.5 4.1-2.3 6.4-2.3s4.6.8 6.4 2.4v27.6h-.9v-27.1s0-.1-.1-.1c-1.6-1.2-3.5-1.8-5.5-1.9-1.5 0-3 .4-4.3 1.1-.1 0-.1.1-.1.2s.1.1.2.1c1.2-.6 2.5-.9 3.8-.9 1.9 0 3.7.6 5.3 1.7v12.8h-9.7v.4h.3v5.5h3.9v-5.5h.9v5.5h3.6v-5.6h1v13.6l-11.3-.1v-27.4zm30.4 32.2-30.8-.1v-1l30.8.1zm1.1-1.4-33.1-.1v-2.5l33.1.1z" fill="#093266"/><path d="m224.1 152.8c-.9-.7-2.2-1.2-3.6-1.3v5.9h3.6z" fill="#093266"/><path d="m220.5 178.5h3.6v-6.3h-3.6z" fill="#093266"/><path d="m219.6 151.5c-1.2 0-2.6.5-3.9 1.2v4.6h3.9z" fill="#093266"/><path d="m219.6 158.4-3.9-.1v6h3.9z" fill="#093266"/><path d="m224.1 158.4h-3.6v5.9h3.6z" fill="#093266"/><path d="m215.7 178.5h3.9v-6.3h-3.9z" fill="#093266"/><path d="m199.6 178.4h3.9v-6.3h-3.9z" fill="#093266"/><path d="m204.4 178.4h3.6v-6.3h-3.6z" fill="#093266"/><path d="m203.5 158.3-3.9-.1v6h3.9z" fill="#093266"/><path d="m208 152.7c-.9-.7-2.2-1.2-3.6-1.3v5.9h3.6z" fill="#093266"/><path d="m208 158.3h-3.6v5.9h3.6z" fill="#093266"/><path d="m203.5 151.4c-1.2 0-2.6.5-3.9 1.2v4.6h3.9z" fill="#093266"/><path d="m203.1 107.8c0-1.2-1-2.2-2.2-2.2s-2.2 1-2.2 2.2v7.6h4.3v-7.6z" fill="#093266"/><path d="m213.9 107.8c0-1.2-1-2.2-2.2-2.2s-2.2 1-2.2 2.2v7.6h4.3v-7.6z" fill="#093266"/><path d="m224.6 107.8c0-1.2-1-2.2-2.2-2.2s-2.2 1-2.2 2.2v7.6h4.3v-7.6z" fill="#093266"/><path d="m229.5 127.4h-1.9v-19.6c0-2.7-2.2-4.8-4.8-4.8-1.3 0-2.5.5-3.4 1.4-.2.2-.3.3-.4.5 0 0 0 0-.1.1-.1.1-.1.2-.2.3-.6.9-.9 2.1-.9 3.2v18.9h-.9v-19.6c0-2.7-2.2-4.8-4.8-4.8-1.3 0-2.5.5-3.4 1.4-.2.2-.3.3-.4.5 0 0 0 0-.1.1-.1.1-.1.2-.2.3-.6.9-.9 2.1-.9 3.2v18.9h-.9v-19.6c0-2.7-2.2-4.8-4.8-4.8-1.3 0-2.5.5-3.4 1.4-.2.2-.3.3-.4.5 0 0 0 0-.1.1-.1.1-.1.2-.2.3-.6.9-.9 2.1-.9 3.2v18.9h-1.3-.1-.1l-.3.5v.2 2.1c0 .2.1.3.3.3h34.6c.1 0 .2-.1.3-.1l.3-.5v-.1-2.1c-.3-.2-.4-.3-.6-.3zm-11-19.7c0-1.1.4-2.2 1.2-3s1.8-1.2 3-1.2c2.3 0 4.2 1.9 4.2 4.2v19.7h-.9v-19.7c0-1.8-1.5-3.3-3.3-3.3h-.1c1.7.2 3 1.5 3 3.2v8.6h-5.7v.6h.4v9.5h4.3v-9.5h1v10.5h-7v-19.6zm-10.7 0c0-1.1.4-2.2 1.2-3s1.9-1.2 3-1.2c2.3 0 4.2 1.9 4.2 4.2v19.6h-.9v-19.6c0-1.8-1.5-3.3-3.3-3.3h-.1c1.7.2 3 1.5 3 3.2v8.6h-5.7v.6h.4v9.5h4.3v-9.5h1v10.5h-7v-19.6zm-10.8 0c0-1.1.4-2.2 1.2-3s1.9-1.2 3-1.2c2.3 0 4.2 1.9 4.2 4.2v19.6h-.9v-19.6c0-1.8-1.5-3.3-3.3-3.3h-.1c1.7.2 2.9 1.5 2.9 3.2v8.6h-5.7v.6h.4v9.5h4.3v-9.5h.9v10.5h-7v-19.6zm32.2 21.7h-34v-1.4h34z" fill="#093266"/><path d="m218.2 134c0-.2-.1-.3-.3-.3h-11.5-.1-.1l-.3.4c0 .1-.1.1-.1.2v9.5c0 .2.1.3.3.3h11.5c.1 0 .2 0 .2-.1l.3-.4v-.1-.1-9.4z" fill="#093266"/><path d="m206.7 143.2h10.9v-8.8l-10.9-.1z" fill="#fff"/><g fill="#093266"><path d="m216.7 141.8h-.7v-5.9h-8v-.6h8.3c.2 0 .3.1.3.3v6.2z"/><path d="m17.9 213.7c2.2 0 5.2.2 11 .2 4.4 0 7.2-.2 9.4-.2.3.2.3 2.1-.1 2.4-1.9.3-3.2.6-4.1.9-1.2.4-1.5 1.3-1.7 3-.1 3.2-.2 26.9-.4 33.6-.2 5.8-.8 10.1-2.9 14-3.9 7.2-10 11.1-15 11.1-2.7 0-5.1-1.1-5.9-2.6 0-.2-.2-1-.2-1.1.2-1.3 1.1-4.2 1.6-5.2 2.4 1.7 6.3 3.3 8.5 3.3 1.8 0 3.2-.5 4.5-1.9 2-2.4 2.5-5.4 2.6-12.1.1-9.6.1-34.1-.2-37.8-.1-2-.3-3.6-2.4-4.2-1.3-.4-2.6-.5-4.9-.9-.3-.5-.1-2.3.2-2.5z"/><path d="m37 231c3 0 8.9-.6 10.9-1.1-.3 2.1-.5 6.6-.5 14.9 0 4.3.1 6.5.4 7.8.6 2.4 2.4 4.3 6.2 4.3 2.1 0 4.3-.8 6.2-2.4.5-.4.8-.9.8-1.7.2-1 .2-5.8 0-16.4 0-.9-.3-1.9-1.4-2.2s-2.7-.5-4.9-.8c-.2-.5.1-2.1.4-2.4 4.1 0 10.6-.5 12.3-1-.2 1.3-.2 3.5-.2 6.2v17.8c0 1.7.4 2.4 1.4 2.5 1.1.2 2.3 0 3.4-.1.1.5 0 2.1-.4 2.5-2.8 1.1-8.6 2.8-10 3-.2 0-.4-.4-.5-.7-.1-.8-.2-3-.2-4.2 0-.2-.3-.3-.5-.2-4.3 3.6-7.7 4.8-10 4.8-7.5 0-9.1-5.2-9.1-10.3-.1-3.7.2-11.7 0-14.9-.1-1.2-.4-2.1-1.4-2.5-.6-.2-2.1-.5-3.4-.7-.1-.4.2-1.9.5-2.2z"/><path d="m75.8 258c1.1-.2 1.6-1.2 1.7-2.5.2-2.3.2-7.7.2-12.5 0-2.7-.1-4.6-.1-5.9-.2-1-1.4-1.9-4.1-3-.2-.5.1-1.7.5-1.9 3-.3 7.6-1.7 9.5-2.8.1.1.4.4.4.5-.1.8-.2 3-.2 4.3 0 .2.3.2.4.2 3.7-3.1 7.5-4.9 10.3-4.9 3.3 0 5.7 1.5 7.5 4 1.4 2.3 2.1 5.3 2.1 9.1 0 4.3 0 11.1.1 13.7 0 .5.3 1.1.7 1.3 1.4.7 2.4.8 4 1.1.2.4.2 2-.3 2.4-1.1 0-3.4-.2-7.5-.2-3.4 0-5.7.2-7.5.2-.3-.4-.4-2.1 0-2.4 1.4-.2 2.6-.5 3-.6 1.1-.3 1.3-1.1 1.4-3.3 0-4.5.1-11.6-.2-14.4-.2-1.3-.7-3.2-2.1-4.4-1.1-1-2.5-1.7-4.7-1.7s-4.6.9-6.3 2.4c-.5.5-.8 1.1-.8 2.7 0 5.3 0 12.8.2 16.3.1 1.6.4 2.2 1.5 2.5.8.2 1.9.5 3.1.5.2.4.2 2.1-.2 2.5-1.1 0-3.3-.2-7.6-.2-3.5 0-6.6.2-7.5.2-.3-.4-.3-2.1 0-2.4.9-.3 1.7-.5 2.5-.8z"/><path d="m123.9 261c-1.4 0-3.7-.2-8-.2-3.3 0-6.3.2-7.5.2-.4-.2-.5-2.2-.1-2.4 1.4-.2 2.4-.5 3.3-.8 1.1-.4 1.3-1 1.4-2.6.2-1.9.2-6.7.2-10.8v-7.4c0-.4-.2-1.1-.7-1.6-.8-.9-2.2-1.4-3.7-1.9-.3-.4 0-1.7.3-2 2.4-.2 7.2-1.1 10.3-2.3v13.5c0 4.2 0 9.2.1 12.6 0 1.3.4 2.1 1.5 2.5 1.1.3 1.5.4 3.3.7.2.4 0 2.2-.4 2.5zm-5.8-38.6c-.4.3-3.2.5-3.7.2-1.1-.6-1.7-1.6-2.1-3.3-.1-.5 0-2 .4-2.4.7-.6 2.4-1.4 3.9-1.4 1.2 0 2.1.5 2.3.7.5.5.8 1.5.8 2.3 0 1.5-.6 3.1-1.6 3.9z"/><path d="m140.5 236.5c-1.2-1.9-3.5-2.8-5.7-2.8-1.8 0-2.8.5-3.2.8-.8.6-2.1 3.1-3.2 5.5-.2.3-2.5-.8-2.4-1.5.2-1.2 1.4-4.3 1.9-4.8 3.3-2.2 8.1-4.2 10.1-4.2 3.3 0 5.9 1.6 7.6 4.1 1.4 2.2 1.8 4.7 1.8 7.6 0 3.9-.3 9.8-.3 12.9 0 1.7.7 3 2.9 3 1.2 0 1.8-.2 2.7-.5 0 .4-.1 2.3-.4 2.6-1.7 1.9-4.5 2.6-6.4 2.6-2.1 0-3.4-.9-4-2.1-.3-.5-.5-1.2-.5-1.8 0-.1-.3-.2-.4-.1-4 2.5-7.1 4-9.2 4-1.4 0-3-.8-4.2-2-1.6-1.7-2.7-4.1-2.7-6.7 0-1.7 1.1-4.1 1.5-4.6 2.6-1.4 11.5-3.4 14.5-4.9.2-.1.5-.5.5-.7.2-.7.2-1.4.2-1.9.1-1.5-.2-3.2-1.1-4.5zm.6 9.6c-2.6.9-7.5 2.5-9 3.4-.4.2-.8 1.6-.8 2.5 0 2.9 2.1 5.1 5.3 5.1 1 0 2.7-.5 3.8-1.2.6-.4.8-1 .9-1.8.2-1.4.2-6.3.2-7.6 0-.2-.2-.4-.4-.4z"/><path d="m161.7 234.5c-.2 0-.3.3-.3.4-.1 3.3-.1 9.5 0 13.4 0 3.2.2 4.7.5 5.8.6 2.1 2.7 3 4.6 3 2.1 0 3.2-.3 4.8-1.2.2.2-.1 2.3-.3 2.6-1.8 2.4-5.1 3.3-7.7 3.3-3.1 0-5.6-1.3-6.8-3.7-1.1-1.9-1.1-3.9-1.1-8.7 0-4.3.1-11 .1-14.1 0-.2-.2-.6-.5-.7l-4.3-.3c-.1-.5.4-2.4.8-2.7 1.1-.2 3-.6 3.6-.8.2-.1.4-.3.4-.6v-6.6c1.1-.6 4.1-2.4 5-3.4.3-.2 1.2-.2 1.4-.1-.2 1.3-.4 4.8-.4 10.1 0 .2.2.5.4.5 3.6 0 8.3-.2 9.5-.3-.2 1.1-.6 3.2-.8 4.4-1.8-.3-6-.3-8.9-.3z"/><path d="m188.1 236.5c-1.2-1.9-3.5-2.8-5.7-2.8-1.8 0-2.8.5-3.2.8-.8.6-2.1 3.1-3.2 5.5-.2.3-2.5-.8-2.4-1.5.2-1.2 1.4-4.3 1.9-4.8 3.3-2.2 8.1-4.2 10.1-4.2 3.3 0 5.9 1.6 7.6 4.1 1.4 2.2 1.8 4.7 1.8 7.6 0 3.9-.3 9.8-.3 12.9 0 1.7.7 3 2.9 3 1.2 0 1.7-.2 2.7-.5 0 .4-.1 2.3-.4 2.6-1.8 1.9-4.5 2.6-6.4 2.6-2.1 0-3.4-.9-4-2.1-.3-.5-.5-1.2-.5-1.8 0-.1-.3-.2-.4-.1-4 2.5-7.1 4-9.2 4-1.4 0-3-.8-4.2-2-1.6-1.7-2.7-4.1-2.7-6.7 0-1.7 1.1-4.1 1.5-4.6 2.6-1.4 11.5-3.4 14.5-4.9.2-.1.5-.5.5-.7.2-.7.2-1.4.2-1.9 0-1.5-.2-3.2-1.1-4.5zm.6 9.6c-2.6.9-7.5 2.5-9 3.4-.4.2-.8 1.6-.8 2.5 0 2.9 2.1 5.1 5.3 5.1 1 0 2.7-.5 3.8-1.2.6-.4.8-1 .9-1.8.2-1.4.2-6.3.2-7.6 0-.2-.3-.4-.4-.4z"/><path d="m245.9 217.2c-2.4-1.2-5.8-1.7-9.4-1.7-11 0-17 8.1-17 20.8 0 11.6 6.5 22.2 20.1 22.2 3.6 0 6.5-1.1 8.2-2.4 1.9-1.5 3.8-4.2 5.9-7.6.5-.1 1.9.7 2.1 1.3-.8 3.1-4.1 9.2-5.9 10.3-2.2.8-7.2 2-11.9 2-17 0-26.6-9.4-26.6-25.1 0-8.3 3.8-16.5 12.2-21 4-2.2 9.1-3.5 15.4-3.5 6.7 0 11.8 1.3 15.3 1.5-.5 2.7-1.1 8.4-1.2 11.9-.3.5-2.6.7-2.6.2-.7-6-1.6-7.5-4.6-8.9z"/><path d="m288.7 244.8c0 6-2.4 11-7.1 14.1-2.1 1.4-5.8 2.8-9 2.8-11.3 0-15.4-8.5-15.4-16.4 0-6 2.7-10.1 6.6-12.8 2.7-1.8 6.5-3.1 10.1-3.1 9.3 0 14.8 6.8 14.8 15.4zm-20.9-11.1c-2 1.3-4 4-4 9.7 0 9 4.6 15 10.6 15 1.7 0 3.3-.5 4.6-1.6 1.9-1.8 2.9-4.8 2.9-9.4 0-8.9-4.3-14.7-10.6-14.7-1.1 0-2.5.3-3.5 1z"/><path d="m287.1 258.6c1.4-.3 2.4-.5 3.3-.8.8-.5 1.1-1.2 1.2-2.1.3-2.3.3-7.5.3-20 0-5.4 0-15.2-.2-17.7-.1-.8-.2-2.1-1.2-2.4-.7-.2-2.2-.8-4.1-1-.4-.2-.3-1.8.1-2.1 4.2-.3 7-.3 11.6-.7.2.1.6.6.6.8-.5 1.4-.7 2.7-.7 6.1-.1 3.8-.1 10.1-.1 16.8 0 11.9 0 17 .2 19 .1 2 .3 3 1.7 3.4 1 .3 1.4.5 3.2.7.2.4.1 2-.4 2.4-1.4 0-3.7-.2-8-.2-3 0-6.7.2-7.6.2-.1-.3-.2-1.9.1-2.4z"/><path d="m303.8 258.6c1.4-.3 2.4-.5 3.3-.8.8-.5 1.1-1.2 1.2-2.1.3-2.3.3-7.5.3-20 0-5.4 0-16.7-.2-19.1-.1-.8-.2-2.1-1.2-2.4-.7-.2-2.2-.5-4.1-.7-.4-.2-.3-1.8.1-2.1 4-.4 7.4-.7 11.6-1.5.2.1.6.6.6.8-.5 1.4-.7 2.7-.7 6.1-.1 3.8-.1 12-.1 18.6 0 11.9 0 17 .2 19 .1 2 .3 3 1.7 3.4 1 .3 1.4.5 3.2.7.2.4.1 2-.4 2.4-1.4 0-3.7-.2-8-.2-3 0-6.7.2-7.6.2-.1-.2-.3-1.8.1-2.3z"/><path d="m346.2 253.7c.1.6-.3 2.1-.5 2.4-3.2 3.7-8.7 5.6-12.2 5.6-4 0-7.1-1.2-9.4-3.6-3.1-3.2-4.5-7.9-4.5-12.3 0-6.8 3-11.3 6.8-13.8 2.4-1.6 5.8-2.6 8.4-2.6 7.5 0 10.2 6.5 10.8 11 .1.2.5.6 1.2.8 0 .4-.5 1.7-.7 2-3.3.8-13.5 1.4-20.1 1.7-.3 0-.4.5-.4.8.1 2.4 1.2 5.6 3.2 7.5 2.2 2.2 4.7 3.2 8.2 3.2 3 0 5.9-1 8.7-3.2.2.2.4.4.5.5zm-20.5-12.5c0 .2.2.5.5.5 2.6.1 11.4-.2 12.9-.5.2-.2.4-.4.5-.7-.5-3.9-3-8.1-7.1-8.1-3.8.1-6.3 3.5-6.8 8.8z"/><path d="m369.8 230.9c1.2.5 2.7.8 4.3.8 2.7 0 3.7-.7 4.6-1.7.2-.1 1 .5 1.1.6 0 .9-1.1 3.6-1.9 4.4-.5.6-1.1 1-2.7 1h-1.8c-.1 0-.2.2-.2.3.2.7.5 2.2.5 3.3 0 5.3-2 8-4.6 9.9-2.9 2.2-5.9 2.9-8 3.1-.2.1-1.4.2-1.6.2-.6.2-1.9.8-1.9 1.9 0 1.4 1.4 2.1 3.1 2.3 3.7.3 10.1.6 12.6 1.5 2.9 1 5.3 3.5 5.3 7.5 0 4.9-3.5 9.8-9.4 12.7-3.1 1.5-6 2.1-8.8 2.1-3.7 0-6.7-.8-9.3-2.7-2.4-1.9-3.7-4.7-3.7-7 0-.7.2-2.6.6-3 .8-1.1 3.9-3.3 7.2-5.7 0-.1.1-.2 0-.2-3-1.1-4.5-3.1-4.8-4.6 0-.4.3-1.2.4-1.4 1.1-.7 3.9-2.3 5-3.2.1-.1.1-.3-.1-.4-4-1.4-7.1-4.6-7.1-10.8 0-3.2 1.4-6.5 4.3-8.8 2.1-1.6 6.7-3.3 9.7-3.3 3-.2 5 .4 7.2 1.2zm3.5 38.4c0-2.6-1.4-4.3-3.8-5.2-2.2-.8-6-1.2-9.4-1.2-1.1 0-2.1.3-2.7.7-3 1.9-4.2 3.7-4.2 5.8 0 1.9.8 3.6 2.4 5 2.2 1.8 4.9 2.4 7.9 2.4 7 0 9.8-3.8 9.8-7.5zm-18.5-29.5c0 4.7 2.2 9.7 7.5 9.7 1.1 0 2.6-.5 3.4-1.4 1.2-1.1 2.1-3.5 2.1-6.4 0-4.6-1.8-9.4-7.4-9.4-3.3.1-5.6 3-5.6 7.5z"/><path d="m403.5 253.7c.1.6-.3 2.1-.5 2.4-3.2 3.7-8.7 5.6-12.2 5.6-4 0-7.1-1.2-9.4-3.6-3.1-3.2-4.5-7.9-4.5-12.3 0-6.8 3-11.3 6.8-13.8 2.4-1.6 5.8-2.6 8.4-2.6 7.5 0 10.2 6.5 10.8 11 .1.2.5.6 1.2.8 0 .4-.5 1.7-.7 2-3.3.8-13.5 1.4-20.1 1.7-.3 0-.4.5-.4.8.1 2.4 1.2 5.6 3.2 7.5 2.2 2.2 4.7 3.2 8.2 3.2 3 0 5.9-1 8.7-3.2.2.2.5.4.5.5zm-20.4-12.5c0 .2.2.5.5.5 2.6.1 11.4-.2 12.9-.5.2-.2.4-.4.5-.7-.5-3.9-3-8.1-7.1-8.1-3.8.1-6.4 3.5-6.8 8.8z"/><path d="m82.6 296.4s.1-.1.1-.1c.3 0 .5.1 1.1.1.8 0 1.3-.1 1.8-.4 1.2-.7 1.5-1.9 1.5-3.5 0-2.4-1.1-4.3-4.2-4.3-.3 0-.8 0-1 .1-.1 0-.2.2-.2.3 0 .6-.1 2.7-.1 6.2 0 1.6-.1 4.7 0 6.7 0 1.3.2 1.5 1 1.6.4.1.8.1 1.3.2.1.1.1.4 0 .4-.7 0-2.2-.1-3.3-.1-1.2 0-2.6.1-3.2.1-.1-.1-.1-.4 0-.4.5-.1.9-.1 1.2-.2.5-.1.8-.2.9-1.5.1-.8.1-2.5.1-6.2 0-1.9 0-4.9-.1-5.7 0-.9-.1-1.3-.8-1.5-.3-.1-.7-.2-1.3-.2 0-.1 0-.4.1-.4.5 0 1.7.1 2.9.1 1.4 0 2.3-.1 3.8-.1.9 0 2.3.2 3.3.9.8.7 1.6 1.7 1.6 3.4 0 2.3-1.3 3.8-2.6 4.4-.9.4-1.7.7-2.7.7-.4 0-.9 0-1.1-.1.1-.2 0-.5-.1-.5z"/><path d="m99.8 287.5c.6 0 1.5.1 2.9.1h5c1 0 2.2 0 2.7-.1 0 0 .1.1.1.1-.2.8-.4 2.5-.5 3.4-.1.1-.4.1-.4 0-.1-.8-.2-1.3-.3-1.7-.2-.6-.4-.9-1.4-1-.7-.1-3.5-.1-3.9 0-.2 0-.3.2-.3.4-.1 1.1-.1 5.5-.1 6 0 .1.1.2.1.2.7.1 3.3 0 4 0 .8-.1 1-.4 1.1-.9.1-.3.2-.6.2-.9.1-.1.4-.1.5 0-.1.5-.2 1.5-.2 2.3 0 1 .1 1.7.1 2.2-.1.1-.4.1-.4 0-.1-.5-.1-.6-.2-.9s-.2-.8-1-.9c-.7-.1-3.3-.1-4 0-.1 0-.1.2-.1.2 0 .7 0 4.2.1 5.8 0 .6.3.9.6.9.5.1 1.5.2 3.2.2 1.6 0 1.9-.3 2.3-.7s1-1.4 1.4-2.4c.1 0 .3.1.4.2-.1.7-.8 2.8-1 3.4-.2.3-.3.3-1.5.3-1.6 0-2.7-.1-6.3-.1-1.7 0-2.5.1-3.6.1-.1-.1-.1-.3 0-.4.7-.1 1.2-.1 1.7-.2.6-.2.8-.5.9-1.5 0-.6.1-3.6.1-6.6 0-2.5 0-4.9-.1-5.4-.1-1-.2-1.2-.8-1.4-.3-.1-.7-.2-1.2-.2-.2-.2-.1-.5-.1-.5z"/><path d="m121.7 287.5c.5 0 1.7.1 2.7.1h1.2c.1.2.3.6 1 1.4 2.7 3.4 8.5 10.5 9.6 11.8l.1-.1c0-3.4.1-9.4-.1-11.1-.1-.8-.2-1.2-.9-1.4-.4-.1-.9-.2-1.6-.3-.1-.1 0-.3 0-.4.7 0 1.8.1 3 .1.8 0 2.1-.1 2.4-.1.1.1.1.3 0 .4-.5.1-.7.1-1 .2-.7.2-.8.8-.9 1.4-.2 2.1-.1 7.2-.2 10.6 0 1.2 0 2.6.1 3.5-.3 0-1.2 0-1.5 0-1.3-1.9-9.3-11.8-10.4-13.3h-.1c-.1 2.6 0 9.4 0 10.8.1 1.3.4 1.6 1 1.7.4.1.9.2 1.4.2.1.1.1.4 0 .4-.5 0-1.6-.1-2.9-.1s-2.1.1-2.7.1c-.1-.1-.1-.4 0-.4.5-.1.8-.1 1.1-.2.6-.2.9-.4 1-1.7.1-1.2.2-6 .2-11.4 0-.3-.2-.9-.6-1.3-.5-.5-1.1-.6-2-.7.1.1.1-.2.1-.2z"/><path d="m149.6 287.5c.5 0 1.7.1 2.7.1h1.2c.1.2.3.6 1 1.4 2.7 3.4 8.5 10.5 9.6 11.8l.1-.1c0-3.4.1-9.4-.1-11.1-.1-.8-.2-1.2-.9-1.4-.4-.1-.9-.2-1.6-.3-.1-.1 0-.3 0-.4.7 0 1.8.1 3 .1.8 0 2.1-.1 2.4-.1.1.1.1.3 0 .4-.5.1-.7.1-1 .2-.7.2-.8.8-.9 1.4-.2 2.1-.1 7.2-.2 10.6 0 1.2 0 2.6.1 3.5-.3 0-1.2 0-1.5 0-1.3-1.9-9.3-11.8-10.4-13.3h-.1c-.1 2.6 0 9.4 0 10.8.1 1.3.4 1.6 1 1.7.4.1.9.2 1.4.2.1.1.1.4 0 .4-.5 0-1.6-.1-2.9-.1s-2.1.1-2.7.1c-.1-.1-.1-.4 0-.4.5-.1.8-.1 1.1-.2.6-.2.9-.4 1-1.7.1-1.2.2-6 .2-11.4 0-.3-.2-.9-.6-1.3-.5-.5-1.1-.6-2-.7 0 .1.1-.2.1-.2z"/><path d="m179.9 302.6c.7.5 1.5.7 2.6.7 1.6 0 2.8-1 2.8-2.9 0-1.8-1.1-2.7-3.4-4.1-2.1-1.3-3.7-2.7-3.7-4.9 0-2.7 2.2-4.3 4.9-4.3 1.6 0 2.6.3 3.6.4-.2.9-.3 2-.4 3.4-.1.1-.4.1-.4 0-.1-1.7-.4-2.4-1.1-2.8-.6-.3-1.2-.5-2-.5-1.8 0-2.8 1.3-2.8 2.8 0 1.4.7 2.3 1.7 3.1 1 .7 2.1 1.3 2.9 1.8 1.3.9 2.6 2 2.6 3.9 0 2.6-2.1 4.7-5.5 4.7-1.5 0-3-.4-3.5-.8-.3-.4-.5-2.8-.6-3.6.1-.1.4-.2.4-.1.5 1.7 1 2.7 1.9 3.2z"/><path d="m196.5 287.5c.8 0 1.9.1 3.2.1.9 0 2.2-.1 2.5-.1.1.1.1.3 0 .4-.2 0-.6.1-.8.2-.4.1-.5.3-.2.9.7 1.5 2.9 5.7 3.4 6.6h.1c.9-1.5 2.7-4.8 3.3-6.3.3-.7.1-1-.6-1.2-.3-.1-.6-.1-1.1-.2-.1-.1-.1-.4.1-.4.7 0 1.8.1 2.6.1 1 0 1.6-.1 2.6-.1.1.1.1.3 0 .4l-1.1.2c-.8.2-1.2.8-1.7 1.6-1.1 1.8-3.2 5.5-3.6 6.5-.1.2-.2.6-.2.9l.1 4.2c0 1 .1 1.6.9 1.8.4.1.5.1 1.2.2 0 .1 0 .3-.1.4-.6 0-2-.1-3.3-.1-1.5 0-2.5.1-3.2.1-.1-.1-.1-.3 0-.4.6-.1 1.1-.1 1.5-.2.7-.2.8-.7.9-1.5l.1-3.8c0-.4-.1-1-.2-1.3-.6-1.3-2.1-4.3-3.1-6.1-1.1-2-1.4-2.1-2.1-2.3-.3-.1-.7-.1-1.1-.2-.2-.1-.1-.4-.1-.4z"/><path d="m220.2 287.5c.6 0 1.4.1 3 .1 1.4 0 2.4-.1 2.9-.1.1 0 .1.4 0 .4-.5.1-.8.1-1.1.2-.6.2-.7.5-.7 1.1 0 .8 0 3.7-.1 5.9 0 2.3 0 5.5.1 6.7 0 .4.2.7.4.8.5.2 3.3.2 4.4.2.5 0 1-.2 1.4-.8.4-.5 1.1-1.6 1.6-2.8.1-.1.4 0 .4.1-.2.9-.8 3.2-1.2 3.9-.1.2-.4.3-1 .3-1.5 0-5.8-.1-7.1-.1-1.1 0-2.6.1-3.2.1-.1-.1-.1-.3 0-.4.6-.1 1-.1 1.4-.2.5-.1.8-.3.9-1.2.1-.7.1-1.6.1-7.2 0-2.8 0-4.3 0-4.9-.1-1.1-.1-1.4-.9-1.6-.3-.1-.9-.2-1.2-.2-.2 0-.2-.3-.1-.3z"/><path d="m237.4 287.5c.6 0 1.9.1 3 .1 1.5 0 2.4-.1 2.9-.1.1.1.1.3 0 .4-.6.1-.9.2-1.2.3s-.4.4-.3.7c.8 2.3 4.1 10.8 4.5 11.7h.1c.4-.9 3.5-8.8 4.3-11 .3-.9.2-1.3-.5-1.5-.4-.1-.7-.2-1.3-.2 0-.1 0-.4.1-.4.5 0 1.5.1 2.6.1 1.2 0 2-.1 2.5-.1v.4c-.4.1-.8.1-1 .2-.8.2-1 .7-1.7 2.3-.7 1.8-2.8 6.9-4.1 10.1-.5 1.3-.8 2.3-1.1 3.1-.3-.1-.9-.1-1.1 0-.3-1-.7-2.2-1.2-3.5-1.3-3.5-3.1-8.3-3.9-10.3-.5-1.3-.8-1.6-1.5-1.8l-1.1-.2c-.1 0-.1-.3 0-.3z"/><path d="m261 300.9c1.5-3.7 3.9-10.5 4.5-12.1.2-.5.3-.9.3-1.3h.7.7l.3 1.1c.5 1.6 3.4 10.5 4.2 12.5.7 1.6.8 1.7 2.6 2 .1.1 0 .4-.1.4-.7 0-2.1-.1-2.9-.1-1 0-2.5 0-3.1.1 0-.1-.1-.3 0-.4.5-.1.9-.1 1.3-.3s.4-.4.3-.7c-.3-1.1-1.2-3.8-1.7-5.1 0 0-.2-.1-.2-.1-.3 0-.8 0-2.2 0-1.6 0-1.9 0-2.2 0-.1 0-.2.1-.2.2-.5 1.3-1.5 4.1-1.6 4.8-.1.4-.1.9.8 1 .3.1.6.2 1.1.2.1.1 0 .4-.1.4-.6 0-1.8-.1-3-.1s-2 .1-2.5.1c-.1 0-.1-.4 0-.4 2-.2 2.2-.4 3-2.2zm4.9-11c-.4 1.2-1.6 4.8-2 5.9 0 .1 0 .1.1.2h2.1 1.8s.1-.1.1-.2l-1.9-5.9c-.1 0-.2 0-.2 0z"/><path d="m281.7 287.5c.5 0 1.7.1 2.7.1h1.2c.1.2.3.6 1 1.4 2.7 3.4 8.5 10.5 9.6 11.8l.1-.1c0-3.4.1-9.4-.1-11.1-.1-.8-.2-1.2-.9-1.4-.4-.1-.9-.2-1.6-.3-.1-.1 0-.3 0-.4.7 0 1.8.1 3 .1.8 0 2.1-.1 2.4-.1.1.1.1.3 0 .4-.5.1-.7.1-1 .2-.7.2-.8.8-.9 1.4-.2 2.1-.1 7.2-.2 10.6 0 1.2 0 2.6.1 3.5-.3 0-1.2 0-1.5 0-1.3-1.9-9.3-11.8-10.4-13.3h-.1c-.1 2.6 0 9.4 0 10.8.1 1.3.4 1.6 1 1.7.4.1.9.2 1.4.2.1.1.1.4 0 .4-.5 0-1.6-.1-2.9-.1s-2.1.1-2.7.1c-.1-.1-.1-.4 0-.4.5-.1.8-.1 1.1-.2.6-.2.9-.4 1-1.7.1-1.2.2-6 .2-11.4 0-.3-.2-.9-.6-1.3-.5-.5-1.1-.6-2-.7.1.1.1-.2.1-.2z"/><path d="m309.3 287.5c.6 0 1.9.1 3.2.1 1.4 0 2.2-.1 2.7-.1.1.1.1.3 0 .4l-1.1.2c-.6.2-.7.5-.7 1.4-.1 1-.1 3.6-.1 5.8 0 2.8 0 5.3.1 6.2.1.8.1 1.3.8 1.4.3.1.8.2 1.3.2.1.1 0 .4 0 .4-.7 0-1.6-.1-2.8-.1-1.5 0-2 .1-3.3.1-.1-.1-.1-.3 0-.4.4 0 .9-.1 1.1-.2.7-.1.8-.5.8-1.2.1-.8.1-4.7.1-7.1 0-2.1 0-4.1-.1-5.3-.1-.6-.1-1.1-.7-1.3-.3-.1-.7-.2-1.4-.2 0 0 0-.3.1-.3z"/><path d="m326.8 300.9c1.5-3.7 3.9-10.5 4.5-12.1.2-.5.3-.9.3-1.3h.7.7l.3 1.1c.5 1.6 3.4 10.5 4.2 12.5.7 1.6.8 1.7 2.6 2 .1.1 0 .4-.1.4-.7 0-2.1-.1-2.9-.1-1 0-2.5 0-3.1.1 0-.1-.1-.3 0-.4.5-.1.9-.1 1.3-.3s.4-.4.3-.7c-.3-1.1-1.2-3.8-1.7-5.1 0 0-.2-.1-.2-.1-.3 0-.8 0-2.2 0-1.6 0-1.9 0-2.2 0-.1 0-.2.1-.2.2-.5 1.3-1.5 4.1-1.6 4.8-.1.4-.1.9.8 1 .3.1.6.2 1.1.2.1.1 0 .4-.1.4-.6 0-1.8-.1-3-.1s-2 .1-2.5.1c-.1 0-.1-.4 0-.4 1.9-.2 2.2-.4 3-2.2zm4.8-11c-.4 1.2-1.6 4.8-2 5.9 0 .1 0 .1.1.2h2.1 1.8s.1-.1.1-.2l-1.9-5.9c-.1 0-.2 0-.2 0z"/><path d="m187.2 340.2c-.5 0-1.3-.1-2.8-.1s-2.5.1-2.8.1c0 0 0-.3 0-.4.4 0 .6 0 1-.1.6-.1.8-.4.8-1.5s0-3.1 0-5.3c0-2.3 0-4.5 0-4.9 0-.3-.1-.7-.5-.8-.3 0-.7 0-1.2-.1 0 0 0-.3 0-.4 1.2-.1 2.6-.6 3.4-1.1 0 0 .2 0 .2.1 0 .7-.1 1.2-.1 6.1 0 1.3 0 5.3.1 6.2 0 1 .1 1.3.7 1.5.4.1.6.1 1.2.2.1.2.1.5 0 .5z"/><path d="m204.6 329.1c0 1.1-.6 2-2.5 3.3v.1c2 1.4 3 2.2 3 3.9 0 2-1.9 3.9-4.4 3.9-3 0-4.1-2-4.1-3.5 0-1 .6-2 3-3.7.1 0 .1-.1 0-.1-1.7-1.2-2.4-2.2-2.4-3.6 0-1 .5-2 1.2-2.7.7-.6 1.8-1.1 2.8-1.1 1.9.1 3.4 1.5 3.4 3.5zm-1.1 8.4c0-1.7-1-2.6-3.4-4.1h-.2c-1.2 1-1.8 1.9-1.8 3.1 0 1.7 1.2 3.3 3.2 3.3 1.1 0 2.2-.7 2.2-2.3zm-4.9-8.9c0 1.6 1.1 2.4 3 3.6h.2c1.2-1 1.5-2 1.5-2.9 0-1.8-1.1-3-2.6-3-1.3-.1-2.1.9-2.1 2.3z"/><path d="m222.1 326.1c-.7 2.3-5.6 12.8-6.3 14.6 0 .1-.1.1-.1.1-.1 0-.5-.2-.5-.3v-.2c1.3-2.7 5.1-10.4 5.7-12.4v-.1c-1.1 0-5.1-.1-6.2 0-.7.1-.9.4-1.5 1.6 0 .1-.4-.1-.4-.1.3-1.1.6-2.3.8-3.4.4.1 1.1.2 1.8.2h4.5 2.3c-.1-.1-.1 0-.1 0z"/><path d="m230.9 332.2c0 .1 0 .2 0 .1 1.1-.6 2.3-1.1 3.3-1.1 1.8 0 3.4 1.7 3.4 4.1 0 2.1-.9 3.5-2.4 4.5-.6.4-1.7.7-2.4.7-3.1 0-4.4-2.4-4.4-5.1 0-4.6 3.9-8.9 9.2-10.7.1 0 .2.3.2.4-4.2 1.8-6.2 4.7-6.9 7.1zm.2.5c-.3.2-.5.4-.6.8-.1.5-.1.9-.1 1.4 0 3.4 1.5 4.9 3.2 4.9 1.4 0 2.3-1.3 2.3-3.5 0-2.5-1.5-4-3.1-4-.6-.1-1.2.1-1.7.4z"/></g><path d="m162.2 334.7-1.6-1.6 1.6-1.6 1.6 1.6zm.7-3.9 1.6-1.6 1.6 1.6-1.6 1.6zm3.2 4.7-1.6 1.6-1.6-1.6 1.6-1.6zm.8-4 1.6 1.6-1.6 1.6-1.6-1.6z" fill="#ad9e6e"/><path d="m251.8 334.7-1.6-1.6 1.6-1.6 1.6 1.6zm.7-3.9 1.6-1.6 1.6 1.6-1.6 1.6zm3.2 4.7-1.6 1.6-1.6-1.6 1.6-1.6zm.8-4 1.6 1.6-1.6 1.6-1.6-1.6z" fill="#ad9e6e"/><path d="m98.3 178.2-5.1-.7c-.5-.1-1 .2-1.1.7l-1.2 4.1v.4l.3 5.9c0 .3.2.6.4.7.2.2.4.2.7.2h.1l5.4-.7c.5-.1.9-.4.9-.9l.4-4.1.1-4.7c.1-.4-.3-.9-.9-.9z" fill="#093266"/><path d="m101 165-4.9-1.3c-.5-.1-1.1.2-1.3.7l-2 6v.2l-.3 4c0 .5.3 1 .8 1.1l5.4 1.1h.2c.4 0 .8-.3 1-.7l1.7-4.9c0-.1.1-.2.1-.3l.2-4.9c-.1-.4-.4-.9-.9-1z" fill="#093266"/><path d="m104.7 153.7-4.7-1.8c-.5-.2-1 0-1.3.5l-1.9 3.3c0 .1-.1.2-.1.3l-1.2 4.7c-.1.5.2 1.1.7 1.3l5.7 1.8h.3c.4 0 .9-.3 1-.7l1.2-3.8v-.1l.9-4.2c.2-.6-.1-1.1-.6-1.3z" fill="#093266"/><path d="m110.1 142.6-4.5-2.4c-.5-.3-1.1-.1-1.4.3l-2.3 3.4c0 .1-.1.1-.1.2l-1.7 4.7c-.2.5.1 1.1.6 1.3l5 2.2c.1.1.3.1.4.1.4 0 .8-.2.9-.6l1.6-3.1 2-4.9c.2-.4 0-1-.5-1.2z" fill="#093266"/><path d="m116.8 131.6-4.2-2.9c-.4-.3-1-.2-1.4.2l-3 3.5c-.1.1-.1.1-.1.2l-2.3 4.3c-.3.5-.1 1.1.4 1.4l4.8 3.1c.2.1.4.2.6.2.3 0 .6-.1.8-.4l3.1-4.1c.1-.1.1-.2.1-.2l1.6-4c.2-.5 0-1-.4-1.3z" fill="#093266"/><path d="m120.6 118.5c-.4-.3-1-.3-1.4 0l-4.2 3.8c-.1.1-.2.2-.2.3l-1.7 3c-.2.4-.1 1 .3 1.3l4.5 3.6c.2.2.4.2.7.2s.6-.1.8-.4l2.7-3.2s.1-.1.1-.1l2.4-3.8c.3-.4.2-1-.2-1.4z" fill="#093266"/><path d="m129.9 108.9c-.3-.4-.9-.5-1.4-.2l-2.8 1.9c-.1.1-.1.1-.2.2l-3.8 4.4c-.4.4-.3 1 0 1.4l3.9 4.1c.2.2.5.3.8.3.2 0 .5-.1.7-.3l3.4-3 .2-.2 2.7-3.7c.3-.4.3-1-.1-1.3z" fill="#093266"/><path d="m139.8 100.4c-.3-.5-.9-.6-1.4-.4l-2.9 1.6c-.1 0-.1.1-.2.1l-4.4 3.9c-.4.4-.5 1-.1 1.4l3.7 4.7c.2.3.5.4.8.4.2 0 .4-.1.6-.2l4.5-2.9c.1-.1.2-.1.2-.2l2.1-2.5c.3-.3.3-.9.1-1.2z" fill="#093266"/><path d="m150.5 94.2c-.3-.5-.9-.6-1.4-.4l-3.7 1.8-3.8 2.2c-.2.1-.4.4-.5.7s0 .6.1.8l3.2 5.1c.2.3.5.5.9.5.2 0 .3 0 .5-.1l4.1-2c.1 0 .2-.1.2-.2l2.9-2.6c.4-.3.5-.9.2-1.3z" fill="#093266"/><path d="m272.5 100.1-3-3.1c-.1-.1-.2-.2-.3-.2l-3.3-1.4c-.5-.2-1-.1-1.3.4l-3.2 4.5c-.3.4-.2 1 .2 1.4l2.9 2.6c.1.1.2.1.3.2l3.5 1.5c.1.1.3.1.4.1.3 0 .6-.2.8-.4l3-4.1c.4-.6.3-1.2 0-1.5z" fill="#093266"/><path d="m263.2 93.2-4.2-3.1c-.1 0-.1-.1-.2-.1l-3-1.4c-.5-.2-1.1 0-1.4.5l-2.4 4.4c-.2.4-.1.9.2 1.3l2.7 2.5c.1.1.2.1.3.2l3.7 1.7c.1.1.3.1.4.1.3 0 .6-.2.8-.4l3-4.1c.7-.6.6-1.2.1-1.6z" fill="#093266"/><path d="m282.8 108.2-3.5-3.9c-.1-.1-.1-.1-.2-.2l-3.3-2.2c-.4-.3-1-.2-1.4.2l-3.6 4.2c-.3.4-.3 1 0 1.4l3.5 3.9c.1.1.2.2.3.2l3.5 1.8c.2.1.3.1.5.1.3 0 .6-.1.8-.3l3.5-3.8c.3-.4.3-1-.1-1.4z" fill="#093266"/><path d="m291.4 117.6-2-3.3c0-.1-.1-.1-.2-.2l-3.5-3.3c-.4-.4-1-.4-1.4 0l-4.3 4.2c-.4.4-.4 1.1 0 1.5l2.8 2.9s.1.1.1.1l3.3 2.8c.2.2.4.2.7.2.2 0 .5-.1.7-.3l3.8-3.3c.2-.3.3-.8 0-1.3z" fill="#093266"/><path d="m305.7 141.2c.5-.2.7-.8.5-1.3l-1.6-4.2c0-.1-.1-.2-.1-.2l-3-4.2c-.3-.4-.9-.6-1.4-.3l-4.7 3c-.4.3-.6.8-.4 1.3l2.1 4.7c0 .1.1.2.2.2l2.7 3.1c.2.2.5.4.8.4.2 0 .3 0 .5-.1z" fill="#093266"/><path d="m310.8 153.4c.5-.2.8-.7.6-1.2l-1.4-5.3c0-.1-.1-.2-.1-.3l-2-3.5c-.3-.5-.8-.7-1.3-.4l-5.3 2.3c-.5.2-.8.8-.6 1.3l1.7 4.5c0 .1 0 .1.1.2l2.2 3.8c.2.3.5.5.9.5.1 0 .2 0 .4-.1z" fill="#093266"/><path d="m310 166.7 4.9-1.3c.5-.1.8-.6.8-1.1l-.2-3.2c0-.1 0-.2-.1-.3l-2.1-5.4c-.2-.5-.7-.8-1.3-.6l-5.5 1.5c-.5.2-.9.7-.7 1.2l1 4.4c0 .1 0 .1.1.2l1.8 4c.2.4.6.6 1 .6z" fill="#093266"/><path d="m312 179.4 5.8-.4c.6 0 1-.5 1-1.1l-.1-3.4c0-.1 0-.2 0-.2l-1.6-6.2c-.1-.5-.7-.9-1.2-.8l-5.9 1.1c-.5.1-.9.6-.8 1.1l.6 5.8c0 .1 0 .2.1.3l1.2 3.1c0 .4.4.7.9.7z" fill="#093266"/><path d="m319.8 186.8-.5-5.2c-.1-.6-.6-1-1.1-.9l-6 .4c-.6 0-1 .5-1 1.1l.1 5.1v.1l.7 5.1c.1.5.5.9 1 .9h.1l5.3-.3c.5 0 .9-.4 1-1l.4-5.2c0 .1 0 0 0-.1z" fill="#093266"/><path d="m299.3 128.4-1.9-3.6s0-.1-.1-.1l-2.9-4c-.2-.2-.4-.4-.7-.4s-.6 0-.8.2l-4.8 3.6c-.4.3-.5 1-.2 1.4l2.1 2.9 3.4 4c.2.2.5.4.8.4.2 0 .4-.1.6-.2l4.2-2.9c.4-.3.5-.8.3-1.3z" fill="#093266"/></svg>